<svg xmlns="http://www.w3.org/2000/svg" viewBox="0 0 1200 630" width="1200" height="630">
  <defs>
    <linearGradient id="bg" x1="0" y1="0" x2="1" y2="1">
      <stop offset="0%" stop-color="#0f172a"/>
      <stop offset="100%" stop-color="#1e1b4b"/>
    </linearGradient>
  </defs>
  <rect width="1200" height="630" fill="url(#bg)"/>
  <g transform="translate(80, 140)">
    <rect width="120" height="120" rx="26" fill="#6366f1"/>
    <path d="M52 34a26 26 0 1 1-18.4 44.4L22 90l-7.4-7.4 11.4-11.4A26 26 0 0 1 52 34zm0 11a15 15 0 1 0 0 30 15 15 0 0 0 0-30z" fill="#fff" transform="translate(8,8)"/>
  </g>
  <text x="80" y="380" font-family="-apple-system, BlinkMacSystemFont, Segoe UI, sans-serif" font-size="76" font-weight="700" fill="#f8fafc">FindMyMCP</text>
  <text x="80" y="445" font-family="-apple-system, BlinkMacSystemFont, Segoe UI, sans-serif" font-size="34" font-weight="400" fill="#cbd5e1">Annuaire francophone des MCP servers</text>
  <text x="80" y="495" font-family="-apple-system, BlinkMacSystemFont, Segoe UI, sans-serif" font-size="34" font-weight="400" fill="#cbd5e1">pour Claude et autres LLM compatibles.</text>
  <text x="80" y="565" font-family="ui-monospace, SFMono-Regular, Menlo, monospace" font-size="22" fill="#818cf8">findmymcp.fr</text>
</svg>
